<svg id="visual" viewBox="0 0 960 300" width="960" height="300" xmlns="http://www.w3.org/2000/svg" xmlns:xlink="http://www.w3.org/1999/xlink" version="1.1"><rect x="0" y="0" width="960" height="300" fill="#0f0f22"></rect><path d="M0 179L22.8 184C45.7 189 91.3 199 137 198.2C182.7 197.3 228.3 185.7 274 183.8C319.7 182 365.3 190 411.2 193C457 196 503 194 548.8 197.2C594.7 200.3 640.3 208.7 686 207C731.7 205.3 777.3 193.7 823 191.2C868.7 188.7 914.3 195.3 937.2 198.7L960 202L960 301L937.2 301C914.3 301 868.7 301 823 301C777.3 301 731.7 301 686 301C640.3 301 594.7 301 548.8 301C503 301 457 301 411.2 301C365.3 301 319.7 301 274 301C228.3 301 182.7 301 137 301C91.3 301 45.7 301 22.8 301L0 301Z" fill="#fa7268"></path><path d="M0 217L22.8 220C45.7 223 91.3 229 137 225.8C182.7 222.7 228.3 210.3 274 210C319.7 209.7 365.3 221.3 411.2 222.8C457 224.3 503 215.7 548.8 215.3C594.7 215 640.3 223 686 225.8C731.7 228.7 777.3 226.3 823 227.7C868.7 229 914.3 234 937.2 236.5L960 239L960 301L937.2 301C914.3 301 868.7 301 823 301C777.3 301 731.7 301 686 301C640.3 301 594.7 301 548.8 301C503 301 457 301 411.2 301C365.3 301 319.7 301 274 301C228.3 301 182.7 301 137 301C91.3 301 45.7 301 22.8 301L0 301Z" fill="#f44e73"></path><path d="M0 255L22.8 254.7C45.7 254.3 91.3 253.7 137 250.3C182.7 247 228.3 241 274 240.7C319.7 240.3 365.3 245.7 411.2 247.2C457 248.7 503 246.3 548.8 246C594.7 245.7 640.3 247.3 686 246.7C731.7 246 777.3 243 823 240.2C868.7 237.3 914.3 234.7 937.2 233.3L960 232L960 301L937.2 301C914.3 301 868.7 301 823 301C777.3 301 731.7 301 686 301C640.3 301 594.7 301 548.8 301C503 301 457 301 411.2 301C365.3 301 319.7 301 274 301C228.3 301 182.7 301 137 301C91.3 301 45.7 301 22.8 301L0 301Z" fill="#e42586"></path><path d="M0 264L22.8 265C45.7 266 91.3 268 137 265.2C182.7 262.3 228.3 254.7 274 251.8C319.7 249 365.3 251 411.2 254.8C457 258.7 503 264.3 548.8 262.7C594.7 261 640.3 252 686 251.5C731.7 251 777.3 259 823 260.5C868.7 262 914.3 257 937.2 254.5L960 252L960 301L937.2 301C914.3 301 868.7 301 823 301C777.3 301 731.7 301 686 301C640.3 301 594.7 301 548.8 301C503 301 457 301 411.2 301C365.3 301 319.7 301 274 301C228.3 301 182.7 301 137 301C91.3 301 45.7 301 22.8 301L0 301Z" fill="#c7009e"></path><path d="M0 272L22.8 270.7C45.7 269.3 91.3 266.7 137 267.2C182.7 267.7 228.3 271.3 274 272.8C319.7 274.3 365.3 273.7 411.2 273C457 272.3 503 271.7 548.8 270.3C594.7 269 640.3 267 686 265.8C731.7 264.7 777.3 264.3 823 264.3C868.7 264.3 914.3 264.7 937.2 264.8L960 265L960 301L937.2 301C914.3 301 868.7 301 823 301C777.3 301 731.7 301 686 301C640.3 301 594.7 301 548.8 301C503 301 457 301 411.2 301C365.3 301 319.7 301 274 301C228.3 301 182.7 301 137 301C91.3 301 45.7 301 22.8 301L0 301Z" fill="#960eb8"></path></svg>